# xmcd
#
# Track frame offsets: 
#        150
#        17230
#        39558
#        63226
#        84991
#        104764
#        133032
#        154201
#        170831
#        190856
#        210345
#        226249
#        248848
#        270714
#
# Disc length: 3886 seconds
#
# Revision: 1
# Processed by: cddbd v1.5.2PL0 Copyright (c) Steve Scherf et al.
# Submitted via: ExactAudioCopy v1.1
#
DISCID=bf0f2c0e
DTITLE=Cathy Jean - In The Remains
DYEAR=2010
DGENRE=Blues
TTITLE0=CDB
TTITLE1=Done Sayeth
TTITLE2=The Dark Ages
TTITLE3=Tankin' The Day
TTITLE4=Free Willy's Bar
TTITLE5=In The Remains
TTITLE6=The 3 Bears
TTITLE7=For More Years
TTITLE8=Dracula
TTITLE9=King Civilian
TTITLE10=You Shuffle
TTITLE11=Rotting In Hope
TTITLE12=Stickin' To My Feet
TTITLE13=Asylum
EXTD=
EXTT0=
EXTT1=
EXTT2=
EXTT3=
EXTT4=
EXTT5=
EXTT6=
EXTT7=
EXTT8=
EXTT9=
EXTT10=
EXTT11=
EXTT12=
EXTT13=
PLAYORDER=
